# xmcd CD database file
#
# Track frame offsets:
#	150
#	16821
#	32570
#	46849
#	62435
#	82868
#	99393
#	115284
#	134146
#	148952
#	165230
#	182481
#	196789
#	213764
#	232008
#	247112
#
# Disc length: 3487 seconds
#
# Revision: 0
# Processed by: cddbd v1.5.2PL0 Copyright (c) Steve Scherf et al.
# Submitted via: CDex 1.60beta1-cs1
#
DISCID=cf0d9d10
DTITLE=Chrystian and Ralf - Acústico Vol. 2
DYEAR=2007
DGENRE=Sertanejo
TTITLE0=Vira Virou
TTITLE1=Basta Um Olhar
TTITLE2=Camisa Manchada
TTITLE3=Dez Minutos
TTITLE4=Dona de Casa - Piscina
TTITLE5=Esse Amor Que Me Mata
TTITLE6=Louco Por Ela
TTITLE7=Mande a Solidão Pra Outro Lugar
TTITLE8=Mito
TTITLE9=Noite de Tortura
TTITLE10=Perdoa
TTITLE11=Quebradas da Noite
TTITLE12=Se o Vento Soprar
TTITLE13=Minha Vida Sem Ela
TTITLE14=Palavras ao Vento
TTITLE15=Pra Sempre em Meus Braços
EXTD=YEAR: 2007
EXTT0=
EXTT1=
EXTT2=
EXTT3=
EXTT4=
EXTT5=
EXTT6=
EXTT7=
EXTT8=
EXTT9=
EXTT10=
EXTT11=
EXTT12=
EXTT13=
EXTT14=
EXTT15=
PLAYORDER=
